<svg fill="none" xmlns="http://www.w3.org/2000/svg" viewBox="0 0 25 25">
  <path
    d="M18 11h2c1 0 3 0 3 3v2c0 2-2 4-3 4h-2v-3h1l1-1v-2l-1-1h-1v-2Z"
    fill="#fff"
    stroke="#121417"
    stroke-width="1.5"
  />
  <path
    d="M18 11v8c0 2-4 4-7 4-4 0-7-2-7-4v-8c0-2 0-2 2-2h10c1 0 2 0 2 2Z"
    fill="#F6A90E"
    stroke="#121417"
    stroke-width="1.5"
  />
  <path
    d="M11 11h-1v3l-1 2-1-2v-3H5c-1 0-2-1-2-3l2-3 2 1c0-2 2-3 4-3s3 1 4 3l1-1 3 3c0 2-2 3-3 3h-2l-2 2-1-2Z"
    fill="#fff"
    stroke="#121417"
    stroke-width="1.5"
    stroke-linejoin="round"
  />
</svg>
