<svg fill="none" xmlns="http://www.w3.org/2000/svg" viewBox="0 0 25 25">
  <g clip-path="url(#a)" stroke="#121417" stroke-width="1.5" stroke-linejoin="round">
    <path d="m4 7 1-2 7-3h2l7 3 1 2c0 8-3 13-8 16h-2c-5-3-8-8-8-16Z" fill="#00E0CE" />
    <path d="M2 18v1l2 1 1 1 1 2h1l1-2v-1l3-1v-1l-3-1-1-3H6l-1 3H4l-2 1Z" fill="#fff" />
    <path d="m11 10-2 2 4 4 6-5-3-2-3 2-2-1Z" fill="#fff" stroke-linecap="round" />
  </g>
  <defs>
    <clipPath id="a">
      <path fill="#fff" transform="translate(1 1)" d="M0 0h24v24H0z" />
    </clipPath>
  </defs>
</svg>
