<svg xmlns="http://www.w3.org/2000/svg" width="48" height="48" fill="none" viewBox="0 0 48 48">
  <path fill="#fff" stroke="#121417" stroke-linecap="round" stroke-width="1.5" d="M42.742 43.829l.416 1.777-1.546-.97-7.65-4.806c-1.082.031-3.309-.056-5.482-.192-2.343-.147-4.764-.358-5.707-.568-1.956-.434-3.529-1.643-3.95-3.693-.735-3.583-.804-7.904.032-12.088.429-2.153 2.288-3.238 4.346-3.48 6.128-.722 12.16-.764 18.028-.014 2.381.304 4.46 1.566 4.947 4.006.778 3.898.784 8.02-.1 11.605-.26 1.05-.56 2.142-1.343 2.968-.672.71-1.618 1.15-2.954 1.35l.962 4.105z"/>
  <path fill="#121417" fill-rule="evenodd" d="M35.654 19.898c-4.19-.188-8.452-.009-12.766.501-1.938.23-3.465 1.213-3.818 2.989a32.412 32.412 0 00-.606 6.655c2.088.117 10.753-.4 12.732-.848 1.985-.449 3.443-1.647 3.836-3.597.356-1.764.57-3.693.622-5.7z" clip-rule="evenodd"/>
  <path fill="#121417" d="M22.889 20.4l-.088-.745.088.744zm12.765-.502l.75.02.018-.736-.734-.033-.034.75zm-16.584 3.49l-.735-.146.735.146zm-.606 6.655l-.75.01.008.7.7.04.042-.75zm12.732-.848l-.165-.732.165.732zm3.836-3.597l.735.149-.735-.149zm-12.055-4.454c4.276-.505 8.498-.682 12.643-.496l.068-1.499c-4.234-.19-8.537-.009-12.888.506l.177 1.49zm-3.171 2.39c.265-1.337 1.414-2.182 3.17-2.39l-.175-1.49c-2.121.251-4.026 1.373-4.466 3.588l1.471.292zm-.592 6.5c-.025-2.12.16-4.33.592-6.5l-1.471-.292a33.168 33.168 0 00-.621 6.81l1.5-.017zm-.792.758c1.097.061 3.83-.043 6.497-.213 2.655-.17 5.383-.413 6.442-.652l-.33-1.464c-.92.208-3.514.447-6.208.619-2.683.171-5.326.268-6.318.213l-.083 1.497zm12.94-.866c2.199-.497 3.94-1.872 4.405-4.18l-1.47-.296c-.322 1.592-1.495 2.613-3.266 3.013l.33 1.463zm4.405-4.18c.365-1.81.584-3.781.637-5.828l-1.5-.039a32.577 32.577 0 01-.607 5.571l1.47.297z"/>
  <path fill="#fff" stroke="#121417" stroke-linecap="round" stroke-width="1.5" d="M8.843 32.664v1.727l1.265-1.15 6.593-5.994c1.221-.057 3.72-.332 6.161-.656 2.64-.35 5.346-.774 6.379-1.07 2.118-.61 3.757-1.994 4.019-4.199.458-3.865.085-8.459-1.296-12.833-.707-2.238-2.894-3.21-5.195-3.294-6.999-.259-13.817.195-20.368 1.474-2.61.51-4.808 1.991-5.103 4.61-.474 4.204-.05 8.582 1.325 12.314.44 1.198 1.107 2.327 2.255 3.141.998.708 2.29 1.128 3.965 1.216v4.714z"/>
  <path fill="#F6A90E" fill-rule="evenodd" d="M32.692 18.44c-3.42-.02-6.884.182-10.378.59-2.043.24-3.653 1.27-4.027 3.134a33.378 33.378 0 00-.568 4.26c3.175-.277 9.652-1.15 11.297-1.623 1.938-.557 3.282-1.764 3.497-3.584.106-.89.166-1.82.179-2.777z" clip-rule="evenodd"/>
</svg>
