<svg xmlns="http://www.w3.org/2000/svg" width="16" height="16" fill="none" viewBox="0 0 16 16">
  <path fill="#121417" fill-rule="evenodd" d="M14.289 1.207a2.75 2.75 0 00-3.89 0L3.095 8.51a.75.75 0 00-.188.313l-1.534 5.07a.75.75 0 00.935.935l5.07-1.534a.75.75 0 00.313-.187l7.305-7.305a2.75 2.75 0 000-3.89l-.707-.706zm-2.829 1.06a1.25 1.25 0 011.768 0l.707.708a1.25 1.25 0 010 1.767l-.562.563-2.475-2.475.562-.563zM9.837 3.89L4.29 9.44l-1.074 3.549 3.549-1.074 5.548-5.549L9.837 3.89z" clip-rule="evenodd"/>
</svg>
